<svg width="30" height="30" viewBox="0 0 30 30" fill="none" xmlns="http://www.w3.org/2000/svg">
<path d="M14.32 19.384C14.048 19.384 13.816 19.296 13.624 19.12C13.448 18.928 13.36 18.696 13.36 18.424V17.776C13.36 17.072 13.504 16.48 13.792 16C14.096 15.52 14.552 15.12 15.16 14.8L15.784 14.464C16.472 14.096 16.944 13.648 17.2 13.12C17.472 12.592 17.608 12.032 17.608 11.44C17.608 10.72 17.352 10.12 16.84 9.64C16.344 9.16 15.664 8.92 14.8 8.92C14.224 8.92 13.72 9.04 13.288 9.28C12.856 9.504 12.52 9.808 12.28 10.192C12.04 10.576 11.92 11.008 11.92 11.488C11.92 11.76 11.824 11.992 11.632 12.184C11.456 12.36 11.232 12.448 10.96 12.448C10.688 12.448 10.456 12.36 10.264 12.184C10.088 11.992 10 11.76 10 11.488C10 10.608 10.216 9.832 10.648 9.16C11.08 8.488 11.656 7.96 12.376 7.576C13.112 7.192 13.92 7 14.8 7C15.664 7 16.448 7.184 17.152 7.552C17.872 7.92 18.448 8.44 18.88 9.112C19.312 9.768 19.528 10.544 19.528 11.44C19.528 12.384 19.304 13.272 18.856 14.104C18.408 14.936 17.688 15.616 16.696 16.144L15.976 16.528C15.752 16.64 15.576 16.792 15.448 16.984C15.336 17.16 15.28 17.424 15.28 17.776V18.424C15.28 18.696 15.184 18.928 14.992 19.12C14.816 19.296 14.592 19.384 14.32 19.384ZM14.32 23.992C13.968 23.992 13.68 23.88 13.456 23.656C13.232 23.432 13.12 23.144 13.12 22.792C13.12 22.424 13.232 22.136 13.456 21.928C13.68 21.704 13.968 21.592 14.32 21.592C14.688 21.592 14.976 21.704 15.184 21.928C15.408 22.136 15.52 22.424 15.52 22.792C15.52 23.144 15.408 23.432 15.184 23.656C14.976 23.88 14.688 23.992 14.32 23.992Z" fill="#FACDB9"/>
<circle cx="15" cy="15" r="14.5" stroke="#FACDB9"/>
</svg>
