<svg width="1728" height="592" viewBox="0 0 1728 592" fill="none" xmlns="http://www.w3.org/2000/svg">
<path d="M106.448 281.4C75.648 281.4 50.348 268.2 30.548 241.8C10.748 215.4 0.84795 181.85 0.84795 141.15C0.84795 100.45 10.748 66.9 30.548 40.5C50.348 14.1 75.648 0.899996 106.448 0.899996C137.248 0.899996 162.548 14.1 182.348 40.5C202.148 66.9 212.048 100.45 212.048 141.15C212.048 181.85 202.148 215.4 182.348 241.8C162.548 268.2 137.248 281.4 106.448 281.4ZM51.998 585C49.798 585 47.873 584.45 46.2229 583.35C44.573 581.7 43.748 579.775 43.748 577.575C43.748 577.025 43.748 576.2 43.748 575.1C44.298 574 44.848 572.9 45.398 571.8L197.198 340.8C198.848 338.05 201.323 336.675 204.623 336.675C207.373 336.675 209.298 337.5 210.398 339.15C212.048 340.25 212.873 341.9 212.873 344.1C212.873 344.65 212.873 345.475 212.873 346.575C212.873 347.675 212.323 348.775 211.223 349.875L59.423 580.875C57.773 583.625 55.298 585 51.998 585ZM365.498 591.6C334.698 591.6 309.398 578.4 289.598 552C269.798 525.6 259.898 492.05 259.898 451.35C259.898 410.65 269.798 377.1 289.598 350.7C309.398 324.3 334.698 311.1 365.498 311.1C396.298 311.1 421.598 324.3 441.398 350.7C461.198 377.1 471.098 410.65 471.098 451.35C471.098 492.05 461.198 525.6 441.398 552C421.598 578.4 396.298 591.6 365.498 591.6ZM365.498 575.1C391.348 575.1 412.523 563.825 429.023 541.275C446.073 518.175 454.598 488.2 454.598 451.35C454.598 414.5 446.073 384.8 429.023 362.25C412.523 339.15 391.348 327.6 365.498 327.6C340.198 327.6 319.023 339.15 301.973 362.25C284.923 384.8 276.398 414.5 276.398 451.35C276.398 488.2 284.923 518.175 301.973 541.275C319.023 563.825 340.198 575.1 365.498 575.1ZM106.448 264.9C132.298 264.9 153.473 253.625 169.973 231.075C187.023 207.975 195.548 178 195.548 141.15C195.548 104.3 187.023 74.6 169.973 52.05C153.473 28.95 132.298 17.4 106.448 17.4C81.148 17.4 59.973 28.95 42.923 52.05C25.873 74.6 17.348 104.3 17.348 141.15C17.348 178 25.873 207.975 42.923 231.075C59.973 253.625 81.148 264.9 106.448 264.9ZM267.323 255.825C265.123 255.825 263.198 255.275 261.548 254.175C259.898 252.525 259.073 250.6 259.073 248.4C259.073 247.85 259.073 247.025 259.073 245.925C259.623 244.825 260.173 243.725 260.723 242.625L412.523 11.625C414.173 8.87496 416.648 7.49996 419.948 7.49996C422.698 7.49996 424.623 8.32497 425.723 9.97498C427.373 11.075 428.198 12.725 428.198 14.925C428.198 15.475 428.198 16.3 428.198 17.4C428.198 18.5 427.648 19.6 426.548 20.7L274.748 251.7C273.098 254.45 270.623 255.825 267.323 255.825ZM545.612 585C543.412 585 541.487 584.175 539.837 582.525C538.187 580.875 537.362 578.95 537.362 576.75V15.75C537.362 13 538.187 11.075 539.837 9.97498C541.487 8.32497 543.412 7.49996 545.612 7.49996C548.362 7.49996 550.287 8.32497 551.387 9.97498C553.037 11.075 553.862 13 553.862 15.75V279.75H839.312V15.75C839.312 13 840.137 11.075 841.787 9.97498C843.437 8.32497 845.362 7.49996 847.562 7.49996C850.312 7.49996 852.237 8.32497 853.337 9.97498C854.987 11.075 855.812 13 855.812 15.75V576.75C855.812 578.95 854.987 580.875 853.337 582.525C852.237 584.175 850.312 585 847.562 585C845.362 585 843.437 584.175 841.787 582.525C840.137 580.875 839.312 578.95 839.312 576.75V296.25H553.862V576.75C553.862 578.95 553.037 580.875 551.387 582.525C550.287 584.175 548.362 585 545.612 585ZM968.006 585C965.806 585 963.881 584.175 962.231 582.525C960.581 580.875 959.756 578.95 959.756 576.75C959.756 574 960.581 572.075 962.231 570.975C963.881 569.325 965.806 568.5 968.006 568.5L959.756 576.75V15.75L968.006 24C965.806 24 963.881 23.175 962.231 21.525C960.581 19.875 959.756 17.95 959.756 15.75C959.756 13 960.581 11.075 962.231 9.97498C963.881 8.32497 965.806 7.49996 968.006 7.49996C970.756 7.49996 972.681 8.32497 973.781 9.97498C975.431 11.075 976.256 13 976.256 15.75C976.256 17.95 975.431 19.875 973.781 21.525C972.681 23.175 970.756 24 968.006 24L976.256 15.75V576.75L968.006 568.5C970.756 568.5 972.681 569.325 973.781 570.975C975.431 572.075 976.256 574 976.256 576.75C976.256 578.95 975.431 580.875 973.781 582.525C972.681 584.175 970.756 585 968.006 585ZM1210.79 585C1208.59 585 1206.67 584.175 1205.02 582.525C1203.37 580.875 1202.54 578.95 1202.54 576.75V24H1049.92C1047.72 24 1045.79 23.175 1044.14 21.525C1042.49 19.875 1041.67 17.95 1041.67 15.75C1041.67 13 1042.49 11.075 1044.14 9.97498C1045.79 8.32497 1047.72 7.49996 1049.92 7.49996H1371.67C1374.42 7.49996 1376.34 8.32497 1377.44 9.97498C1379.09 11.075 1379.92 13 1379.92 15.75C1379.92 17.95 1379.09 19.875 1377.44 21.525C1376.34 23.175 1374.42 24 1371.67 24H1219.04V576.75C1219.04 578.95 1218.22 580.875 1216.57 582.525C1215.47 584.175 1213.54 585 1210.79 585ZM1559.95 590.775C1527.5 590.775 1496.15 583.625 1465.9 569.325C1435.65 554.475 1410.9 535.225 1391.65 511.575C1390 509.925 1389.17 508 1389.17 505.8C1389.17 503.6 1390 501.675 1391.65 500.025C1393.3 498.375 1395.22 497.55 1397.42 497.55C1399.62 497.55 1402.1 498.925 1404.85 501.675C1422.45 523.125 1445 540.725 1472.5 554.475C1500.55 567.675 1529.7 574.275 1559.95 574.275C1586.35 574.275 1610.82 568.775 1633.37 557.775C1656.47 546.775 1675.17 530.825 1689.47 509.925C1703.77 488.475 1710.92 462.075 1710.92 430.725C1710.92 403.225 1702.67 378.475 1686.17 356.475C1669.67 333.925 1638.05 316.875 1591.3 305.325L1523.65 288.825C1490.1 280.575 1464.52 268.475 1446.92 252.525C1429.32 236.575 1417.5 218.975 1411.45 199.725C1405.4 180.475 1402.37 162.05 1402.37 144.45C1402.37 118.6 1408.42 94.95 1420.52 73.5C1432.62 51.5 1449.95 33.9 1472.5 20.7C1495.6 7.49999 1522.82 0.899996 1554.17 0.899996C1584.42 0.899996 1611.65 8.04999 1635.85 22.35C1660.05 36.65 1682.6 54.25 1703.5 75.15C1705.7 77.35 1706.8 79.55 1706.8 81.75C1706.8 83.95 1705.97 85.875 1704.32 87.525C1702.67 88.625 1700.75 89.175 1698.55 89.175C1695.8 89.175 1693.05 87.8 1690.3 85.05C1671.05 65.8 1650.15 49.85 1627.6 37.2C1605.6 24 1581.12 17.4 1554.17 17.4C1526.12 17.4 1501.92 23.175 1481.57 34.725C1461.77 46.275 1446.37 61.675 1435.37 80.925C1424.37 100.175 1418.87 121.35 1418.87 144.45C1418.87 161.5 1421.62 178.55 1427.12 195.6C1432.62 212.1 1443.07 227.225 1458.47 240.975C1474.42 254.175 1497.25 264.625 1526.95 272.325L1594.6 288.825C1628.7 297.075 1655.37 308.625 1674.62 323.475C1693.87 337.775 1707.35 354.275 1715.05 372.975C1723.3 391.125 1727.42 410.375 1727.42 430.725C1727.42 465.375 1719.45 494.525 1703.5 518.175C1687.55 541.825 1666.92 559.975 1641.62 572.625C1616.32 584.725 1589.1 590.775 1559.95 590.775Z" fill="#FACDB9"/>
</svg>
