<?xml version="1.0" encoding="UTF-8" standalone="no"?><!DOCTYPE svg PUBLIC "-//W3C//DTD SVG 1.1//EN" "http://www.w3.org/Graphics/SVG/1.1/DTD/svg11.dtd"><svg width="100%" height="100%" viewBox="0 0 3508 1115" version="1.1" xmlns="http://www.w3.org/2000/svg" xmlns:xlink="http://www.w3.org/1999/xlink" xml:space="preserve" xmlns:serif="http://www.serif.com/" style="fill-rule:evenodd;clip-rule:evenodd;stroke-linejoin:round;stroke-miterlimit:2;"><g transform="matrix(1,0,0,1,0,-682.759)"><g transform="matrix(1.32484,0,0,1.32484,-824.37,-731.224)"><path d="M772.672,1466.87C728.797,1466.87 692.756,1448.06 664.551,1410.45C636.346,1372.85 622.243,1325.05 622.243,1267.08C622.243,1209.1 636.346,1161.31 664.551,1123.7C692.756,1086.09 728.797,1067.29 772.672,1067.29C816.547,1067.29 852.587,1086.09 880.792,1123.7C908.998,1161.31 923.1,1209.1 923.1,1267.08C923.1,1325.05 908.998,1372.85 880.792,1410.45C852.587,1448.06 816.547,1466.87 772.672,1466.87ZM1001.84,1430.43C994.006,1430.43 990.088,1426.91 990.088,1419.86C990.088,1419.07 990.284,1417.9 990.676,1416.33C991.067,1414.76 991.655,1413.2 992.439,1411.63L1208.68,1082.57C1211.03,1078.65 1214.56,1076.69 1219.26,1076.69C1227.09,1076.69 1231.01,1080.22 1231.01,1087.27L1231.01,1090.79C1231.01,1092.36 1230.23,1093.93 1228.66,1095.49L1012.42,1424.56C1010.07,1428.47 1006.54,1430.43 1001.84,1430.43ZM772.672,1443.36C809.495,1443.36 839.855,1427.1 863.752,1394.59C887.648,1362.07 899.596,1319.57 899.596,1267.08C899.596,1214.58 887.648,1172.08 863.752,1139.57C839.855,1107.05 809.495,1090.79 772.672,1090.79C736.632,1090.79 706.467,1107.05 682.179,1139.57C657.892,1172.08 645.748,1214.58 645.748,1267.08C645.748,1319.57 657.892,1362.07 682.179,1394.59C706.467,1427.1 736.632,1443.36 772.672,1443.36ZM1141.69,1908.75C1097.82,1908.75 1061.78,1889.94 1033.57,1852.34C1005.37,1814.73 991.263,1766.94 991.263,1708.96C991.263,1650.98 1005.37,1603.19 1033.57,1565.58C1061.78,1527.98 1097.82,1509.17 1141.69,1509.17C1185.57,1509.17 1221.61,1527.98 1249.81,1565.58C1278.02,1603.19 1292.12,1650.98 1292.12,1708.96C1292.12,1766.94 1278.02,1814.73 1249.81,1852.34C1221.61,1889.94 1185.57,1908.75 1141.69,1908.75ZM1141.69,1885.24C1178.52,1885.24 1208.88,1868.99 1232.77,1836.47C1256.67,1803.96 1268.62,1761.45 1268.62,1708.96C1268.62,1656.47 1256.67,1613.96 1232.77,1581.45C1208.88,1548.93 1178.52,1532.68 1141.69,1532.68C1105.65,1532.68 1075.49,1548.93 1051.2,1581.45C1026.91,1613.96 1014.77,1656.47 1014.77,1708.96C1014.77,1761.45 1026.91,1803.96 1051.2,1836.47C1075.49,1868.99 1105.65,1885.24 1141.69,1885.24ZM695.107,1899.35C687.272,1899.35 683.355,1895.82 683.355,1888.77C683.355,1887.99 683.551,1886.81 683.942,1885.24C684.334,1883.68 684.922,1882.11 685.705,1880.54L901.946,1551.48C904.297,1547.56 907.822,1545.61 912.523,1545.61C920.358,1545.61 924.276,1549.13 924.276,1556.18L924.276,1559.71C924.276,1561.27 923.492,1562.84 921.925,1564.41L705.684,1893.47C703.334,1897.39 699.808,1899.35 695.107,1899.35Z" style="fill:rgb(250,205,185);fill-rule:nonzero;"/></g><g transform="matrix(1.32484,0,0,1.35512,-824.37,-776.284)"><path d="M1444.9,1899.35C1437.07,1899.35 1433.15,1895.43 1433.15,1887.6L1433.15,1088.44C1433.15,1080.61 1437.07,1076.69 1444.9,1076.69C1452.74,1076.69 1456.65,1080.61 1456.65,1088.44L1456.65,1464.51L1863.28,1464.51L1863.28,1088.44C1863.28,1080.61 1867.2,1076.69 1875.03,1076.69C1882.87,1076.69 1886.78,1080.61 1886.78,1088.44L1886.78,1887.6C1886.78,1895.43 1882.87,1899.35 1875.03,1899.35C1867.2,1899.35 1863.28,1895.43 1863.28,1887.6L1863.28,1488.02L1456.65,1488.02L1456.65,1887.6C1456.65,1895.43 1452.74,1899.35 1444.9,1899.35Z" style="fill:rgb(250,205,185);fill-rule:nonzero;"/></g><g transform="matrix(1.32484,0,0,1.35512,-824.37,-776.284)"><path d="M2093.62,1899.35C2085.79,1899.35 2081.87,1895.43 2081.87,1887.6L2081.87,1088.44C2081.87,1080.61 2085.79,1076.69 2093.62,1076.69C2101.46,1076.69 2105.38,1080.61 2105.38,1088.44L2105.38,1887.6C2105.38,1895.43 2101.46,1899.35 2093.62,1899.35Z" style="fill:rgb(250,205,185);fill-rule:nonzero;"/></g><g transform="matrix(1.32484,0,0,1.35512,-824.37,-776.284)"><path d="M2486.15,1899.35C2478.31,1899.35 2474.4,1895.43 2474.4,1887.6L2474.4,1100.19L2256.98,1100.19C2249.14,1100.19 2245.23,1096.28 2245.23,1088.44C2245.23,1080.61 2249.14,1076.69 2256.98,1076.69L2715.32,1076.69C2723.15,1076.69 2727.07,1080.61 2727.07,1088.44C2727.07,1096.28 2723.15,1100.19 2715.32,1100.19L2497.9,1100.19L2497.9,1887.6C2497.9,1895.43 2493.98,1899.35 2486.15,1899.35Z" style="fill:rgb(250,205,185);fill-rule:nonzero;"/></g><g transform="matrix(1.32484,0,0,1.32669,-824.37,-733.201)"><path d="M3031.45,1907.57C2985.23,1907.57 2940.57,1897.19 2897.48,1876.43C2854.39,1855.67 2819.13,1828.44 2791.71,1794.75C2789.36,1792.4 2788.18,1789.66 2788.18,1786.53C2788.18,1778.69 2792.1,1774.77 2799.93,1774.77C2803.07,1774.77 2806.59,1776.73 2810.51,1780.65C2835.58,1811.2 2867.9,1836.08 2907.47,1855.28C2947.03,1874.47 2988.36,1884.07 3031.45,1884.07C3069.06,1884.07 3104.12,1876.23 3136.64,1860.57C3169.15,1844.89 3195.59,1821.98 3215.96,1791.81C3236.33,1761.65 3246.52,1724.24 3246.52,1679.58C3246.52,1640.41 3234.77,1604.95 3211.26,1573.22C3187.76,1541.49 3142.71,1517.4 3076.11,1500.95L2979.74,1477.44C2931.95,1465.69 2895.52,1448.45 2870.45,1425.73C2845.38,1403.01 2828.53,1377.94 2819.91,1350.52C2811.29,1323.1 2806.98,1296.85 2806.98,1271.78C2806.98,1234.95 2815.6,1201.07 2832.84,1170.12C2850.08,1139.17 2874.95,1114.3 2907.47,1095.49C2939.98,1076.69 2978.57,1067.29 3023.23,1067.29C3066.32,1067.29 3105.1,1077.47 3139.57,1097.84C3174.05,1118.21 3206.17,1143.29 3235.94,1173.06C3239.08,1176.19 3240.64,1179.33 3240.64,1182.46C3240.64,1189.51 3236.72,1193.04 3228.89,1193.04C3224.97,1193.04 3221.06,1191.08 3217.14,1187.16C3189.72,1159.74 3160.14,1136.82 3128.41,1118.41C3096.68,1100 3061.62,1090.79 3023.23,1090.79C2983.27,1090.79 2948.99,1099.02 2920.39,1115.47C2891.8,1131.93 2869.66,1153.86 2853.99,1181.29C2838.32,1208.71 2830.49,1238.87 2830.49,1271.78C2830.49,1296.07 2834.41,1320.16 2842.24,1344.05C2850.08,1367.95 2865.16,1389.5 2887.49,1408.69C2909.82,1427.89 2942.14,1442.97 2984.44,1453.94L3080.81,1477.44C3129.39,1489.19 3167.39,1505.45 3194.81,1526.21C3222.23,1546.98 3241.62,1570.48 3252.98,1596.73C3264.34,1622.97 3270.02,1650.59 3270.02,1679.58C3270.02,1728.94 3258.66,1770.46 3235.94,1804.15C3213.22,1837.84 3183.84,1863.5 3147.8,1881.13C3111.76,1898.76 3072.98,1907.57 3031.45,1907.57Z" style="fill:rgb(250,205,185);fill-rule:nonzero;"/></g></g></svg>